<svg width="24" height="24" viewBox="0 0 1.08 1.08" xmlns="http://www.w3.org/2000/svg" aria-hidden="true" class="iconify iconify--twemoji"><path fill="#CCD6DD" d="M.93.96a.12.12 0 0 1-.12.12H.15A.12.12 0 0 1 .03.96V.12A.12.12 0 0 1 .15 0h.66a.12.12 0 0 1 .12.12v.84z"/><path fill="#99AAB5" d="M.81.72a.03.03 0 0 1-.03.03h-.6a.03.03 0 1 1 0-.06h.6a.03.03 0 0 1 .03.03zM.33.84A.03.03 0 0 1 .3.87H.18a.03.03 0 1 1 0-.06H.3a.03.03 0 0 1 .03.03zm.48-.6a.03.03 0 0 1-.03.03h-.6a.03.03 0 0 1 0-.06h.6a.03.03 0 0 1 .03.03zm0 .12a.03.03 0 0 1-.03.03h-.6a.03.03 0 1 1 0-.06h.6a.03.03 0 0 1 .03.03zm0 .12a.03.03 0 0 1-.03.03h-.6a.03.03 0 1 1 0-.06h.6a.03.03 0 0 1 .03.03zm0 .12a.03.03 0 0 1-.03.03h-.6a.03.03 0 1 1 0-.06h.6A.03.03 0 0 1 .81.6z"/><path fill="#66757F" d="M.93.188C.905.173.875.171.854.188L.83.207.786.243.783.245.712.303l-.356.29C.343.605.332.631.32.656S.291.742.276.788C.271.795.244.843.259.862c.016.019.07 0 .077-.002C.385.855.448.849.476.843A.215.215 0 0 0 .545.821L.546.82.901.53.925.511.93.507V.188z"/><path fill="#D99E82" d="M.544.676S.506.619.481.599A.472.472 0 0 0 .404.535C.391.522.368.521.355.534A.254.254 0 0 0 .32.603C.306.637.282.728.267.776.265.784.283.763.282.77a.068.068 0 0 0 .002.017L.279.792l.006.002A.052.052 0 0 0 .287.8L.292.795a.068.068 0 0 0 .017.002C.316.796.295.814.303.812.351.797.441.773.476.759A.231.231 0 0 0 .545.724C.559.711.557.689.544.675z"/><path fill="#EA596E" d="M.759.131a.068.068 0 0 0 0 .095l.095.095a.068.068 0 0 0 .095 0l.095-.095a.068.068 0 0 0 0-.095L.95.035a.068.068 0 0 0-.095 0L.76.13z"/><path fill="#FFCC4D" d="M.355.535.451.63l.095.095.356-.356-.19-.19-.356.356z"/><path fill="#292F33" d="M.339.802S.278.836.26.819C.244.803.277.742.277.742s.058.001.061.061z"/><path fill="#CCD6DD" d="M.712.178.83.06l.19.19-.118.118z"/><path fill="#99AAB5" d="M.783.106.807.083l.19.19-.024.024zM.736.154.76.13l.19.19-.024.024z"/></svg>
